<?xml version="1.0" encoding="utf-8"?><svg viewBox="0 0 24 24" xmlns="http://www.w3.org/2000/svg" xmlns:xlink="http://www.w3.org/1999/xlink"><style>:root>svg{display:none}:root>svg:target{display:block}</style><svg viewBox="0 0 12 9" id="checkbox" xmlns="http://www.w3.org/2000/svg"><path d="M1 3.182 4.887 7 11 1"/></svg><svg viewBox="0 0 24 24" id="icon-dwd" xmlns="http://www.w3.org/2000/svg"><path d="M21 14.25v5.25a1.5 1.5 0 0 1-1.5 1.5h-15A1.5 1.5 0 0 1 3 19.5v-5.25a.75.75 0 1 1 1.5 0v5.25h15v-5.25a.75.75 0 1 1 1.5 0Zm-9.53.53a.747.747 0 0 0 1.06 0l3.75-3.75a.75.75 0 1 0-1.06-1.06l-2.47 2.47V3.75a.75.75 0 1 0-1.5 0v8.69L8.78 9.97a.75.75 0 0 0-1.06 1.06l3.75 3.75Z"/></svg></svg>